<svg width="152" height="62" viewBox="0 0 152 62" fill="none" xmlns="http://www.w3.org/2000/svg">
<g clip-path="url(#clip0_1227_1028)">
<path d="M0 0.436523V61.3542H151.5V0.436523H0ZM57.376 59.2511V2.6847H149.519V59.2511H57.376ZM34.9037 36.8421V25.0212H39.9583V8.12378H47.8817V53.7395H39.9583V36.8421H34.9037ZM32.6497 8.05124V53.7395H24.7263V8.05124H32.6497ZM22.404 24.9487V36.8421H17.3494V53.7395H9.42605V8.05124H17.3494V24.9487H22.404Z" fill="#5E666F"/>
<path d="M97.1745 27.4147H82.5573V13.9258H75.8634V47.9382H82.5573V34.0141H97.1745V47.9382H103.868V13.9258H97.1745V27.4147Z" fill="#5E666F"/>
<path d="M118.007 13.9258H111.314V47.9382H118.007V13.9258Z" fill="#5E666F"/>
<path d="M132.078 13.9258H125.384V47.9382H132.078V13.9258Z" fill="#5E666F"/>
</g>
<defs>
<clipPath id="clip0_1227_1028">
<rect width="151.5" height="60.9177" fill="white" transform="translate(0.25 0.436523)"/>
</clipPath>
</defs>
</svg>
